%TF.GenerationSoftware,KiCad,Pcbnew,(6.0.0)*%
%TF.CreationDate,2023-09-19T02:50:45-04:00*%
%TF.ProjectId,AFT_x06_Magnetometer_Shield_MichaelLee,4146545f-7830-4365-9f4d-61676e65746f,rev?*%
%TF.SameCoordinates,Original*%
%TF.FileFunction,Copper,L1,Top*%
%TF.FilePolarity,Positive*%
%FSLAX46Y46*%
G04 Gerber Fmt 4.6, Leading zero omitted, Abs format (unit mm)*
G04 Created by KiCad (PCBNEW (6.0.0)) date 2023-09-19 02:50:45*
%MOMM*%
%LPD*%
G01*
G04 APERTURE LIST*
G04 Aperture macros list*
%AMRoundRect*
0 Rectangle with rounded corners*
0 $1 Rounding radius*
0 $2 $3 $4 $5 $6 $7 $8 $9 X,Y pos of 4 corners*
0 Add a 4 corners polygon primitive as box body*
4,1,4,$2,$3,$4,$5,$6,$7,$8,$9,$2,$3,0*
0 Add four circle primitives for the rounded corners*
1,1,$1+$1,$2,$3*
1,1,$1+$1,$4,$5*
1,1,$1+$1,$6,$7*
1,1,$1+$1,$8,$9*
0 Add four rect primitives between the rounded corners*
20,1,$1+$1,$2,$3,$4,$5,0*
20,1,$1+$1,$4,$5,$6,$7,0*
20,1,$1+$1,$6,$7,$8,$9,0*
20,1,$1+$1,$8,$9,$2,$3,0*%
G04 Aperture macros list end*
%TA.AperFunction,SMDPad,CuDef*%
%ADD10RoundRect,0.250000X0.475000X-0.337500X0.475000X0.337500X-0.475000X0.337500X-0.475000X-0.337500X0*%
%TD*%
%TA.AperFunction,SMDPad,CuDef*%
%ADD11RoundRect,0.150000X-0.512500X-0.150000X0.512500X-0.150000X0.512500X0.150000X-0.512500X0.150000X0*%
%TD*%
%TA.AperFunction,SMDPad,CuDef*%
%ADD12R,0.375000X0.350000*%
%TD*%
%TA.AperFunction,SMDPad,CuDef*%
%ADD13R,0.350000X0.375000*%
%TD*%
%TA.AperFunction,SMDPad,CuDef*%
%ADD14RoundRect,0.250000X-0.337500X-0.475000X0.337500X-0.475000X0.337500X0.475000X-0.337500X0.475000X0*%
%TD*%
%TA.AperFunction,ViaPad*%
%ADD15C,0.800000*%
%TD*%
%TA.AperFunction,Conductor*%
%ADD16C,0.250000*%
%TD*%
G04 APERTURE END LIST*
D10*
%TO.P,C2,1*%
%TO.N,GND*%
X161000000Y-93037500D03*
%TO.P,C2,2*%
%TO.N,/3.3V*%
X161000000Y-90962500D03*
%TD*%
D11*
%TO.P,U1,5,VOUT*%
%TO.N,/3.3V*%
X169137500Y-91050000D03*
%TO.P,U1,4,NC*%
%TO.N,unconnected-(U1-Pad4)*%
X169137500Y-92950000D03*
%TO.P,U1,3,EN*%
%TO.N,+5V*%
X166862500Y-92950000D03*
%TO.P,U1,2,GND*%
%TO.N,GND*%
X166862500Y-92000000D03*
%TO.P,U1,1,VIN*%
%TO.N,+5V*%
X166862500Y-91050000D03*
%TD*%
D12*
%TO.P,U2,1,SCL/SPC*%
%TO.N,IO.SCK*%
X167237500Y-97250000D03*
%TO.P,U2,2,NC*%
%TO.N,unconnected-(U2-Pad2)*%
X167237500Y-97750000D03*
%TO.P,U2,3,CS*%
%TO.N,IO.CSB*%
X167237500Y-98250000D03*
%TO.P,U2,4,SDA/SDI/SDO*%
%TO.N,IO.SDI*%
X167237500Y-98750000D03*
D13*
%TO.P,U2,5,C1*%
%TO.N,Net-(C1-Pad1)*%
X167750000Y-98762500D03*
%TO.P,U2,6,GND*%
%TO.N,GND*%
X168250000Y-98762500D03*
D12*
%TO.P,U2,7,INT/DRDY/SDO*%
%TO.N,IO.SDO*%
X168762500Y-98750000D03*
%TO.P,U2,8,GND*%
%TO.N,GND*%
X168762500Y-98250000D03*
%TO.P,U2,9,VDD*%
%TO.N,/3.3V*%
X168762500Y-97750000D03*
%TO.P,U2,10,VDD_IO*%
X168762500Y-97250000D03*
D13*
%TO.P,U2,11,NC*%
%TO.N,unconnected-(U2-Pad11)*%
X168250000Y-97237500D03*
%TO.P,U2,12,NC*%
%TO.N,unconnected-(U2-Pad12)*%
X167750000Y-97237500D03*
%TD*%
D10*
%TO.P,C5,1*%
%TO.N,GND*%
X179000000Y-99037500D03*
%TO.P,C5,2*%
%TO.N,+5V*%
X179000000Y-96962500D03*
%TD*%
D14*
%TO.P,C1,2*%
%TO.N,GND*%
X169037500Y-105000000D03*
%TO.P,C1,1*%
%TO.N,Net-(C1-Pad1)*%
X166962500Y-105000000D03*
%TD*%
D10*
%TO.P,C4,1*%
%TO.N,GND*%
X179000000Y-103037500D03*
%TO.P,C4,2*%
%TO.N,/3.3V*%
X179000000Y-100962500D03*
%TD*%
D14*
%TO.P,C6,2*%
%TO.N,GND*%
X175037500Y-93000000D03*
%TO.P,C6,1*%
%TO.N,/3.3V*%
X172962500Y-93000000D03*
%TD*%
D10*
%TO.P,C3,1*%
%TO.N,GND*%
X174000000Y-103037500D03*
%TO.P,C3,2*%
%TO.N,/3.3V*%
X174000000Y-100962500D03*
%TD*%
D15*
%TO.N,GND*%
X175000000Y-95000000D03*
X177000000Y-99000000D03*
X177037500Y-103037500D03*
X172037500Y-103037500D03*
X170000000Y-99000000D03*
X169000000Y-100000000D03*
X169000000Y-103000000D03*
X165024310Y-91975690D03*
X161000000Y-95000000D03*
%TD*%
D16*
%TO.N,GND*%
X175037500Y-94962500D02*
X175000000Y-95000000D01*
X175037500Y-93000000D02*
X175037500Y-94962500D01*
X177037500Y-99037500D02*
X177000000Y-99000000D01*
X179000000Y-99037500D02*
X177037500Y-99037500D01*
X177000000Y-103000000D02*
X177037500Y-103037500D01*
X179000000Y-103037500D02*
X177037500Y-103037500D01*
X172000000Y-103000000D02*
X172037500Y-103037500D01*
X174000000Y-103037500D02*
X172037500Y-103037500D01*
X169250000Y-98250000D02*
X170000000Y-99000000D01*
X168762500Y-98250000D02*
X169250000Y-98250000D01*
X168250000Y-99250000D02*
X169000000Y-100000000D01*
X168250000Y-98762500D02*
X168250000Y-99250000D01*
X169037500Y-103037500D02*
X169000000Y-103000000D01*
X169037500Y-105000000D02*
X169037500Y-103037500D01*
X165000000Y-92000000D02*
X165024310Y-91975690D01*
X166862500Y-92000000D02*
X165000000Y-92000000D01*
X161000000Y-93037500D02*
X161000000Y-95000000D01*
%TO.N,/3.3V*%
X162986522Y-90962500D02*
X168762500Y-96738478D01*
X161000000Y-90962500D02*
X162986522Y-90962500D01*
X168762500Y-96738478D02*
X168762500Y-97250000D01*
%TO.N,+5V*%
X167246072Y-92950000D02*
X166862500Y-92950000D01*
X167246072Y-91050000D02*
X167849520Y-91653448D01*
X167849520Y-91653448D02*
X167849520Y-92346552D01*
X166862500Y-91050000D02*
X167246072Y-91050000D01*
X167849520Y-92346552D02*
X167246072Y-92950000D01*
X174087973Y-90425480D02*
X167487020Y-90425480D01*
X179000000Y-95337507D02*
X174087973Y-90425480D01*
X179000000Y-96962500D02*
X179000000Y-95337507D01*
X167487020Y-90425480D02*
X166862500Y-91050000D01*
%TO.N,/3.3V*%
X179000000Y-100962500D02*
X174000000Y-100962500D01*
%TO.N,Net-(C1-Pad1)*%
X167750000Y-98762500D02*
X167750000Y-104212500D01*
X167750000Y-104212500D02*
X166962500Y-105000000D01*
%TO.N,/3.3V*%
X170787500Y-97750000D02*
X174000000Y-100962500D01*
X168762500Y-97750000D02*
X170787500Y-97750000D01*
X168762500Y-97250000D02*
X168762500Y-97750000D01*
X168762500Y-97200000D02*
X168762500Y-97250000D01*
X172962500Y-93000000D02*
X168762500Y-97200000D01*
X169137500Y-91050000D02*
X171012500Y-91050000D01*
X171012500Y-91050000D02*
X172962500Y-93000000D01*
%TD*%
%TA.AperFunction,Conductor*%
%TO.N,/3.3V*%
G36*
X181434121Y-88528002D02*
G01*
X181480614Y-88581658D01*
X181492000Y-88634000D01*
X181492000Y-107366000D01*
X181471998Y-107434121D01*
X181418342Y-107480614D01*
X181366000Y-107492000D01*
X157634000Y-107492000D01*
X157565879Y-107471998D01*
X157519386Y-107418342D01*
X157508000Y-107366000D01*
X157508000Y-105525400D01*
X165866500Y-105525400D01*
X165877474Y-105631166D01*
X165933450Y-105798946D01*
X166026522Y-105949348D01*
X166151697Y-106074305D01*
X166157927Y-106078145D01*
X166157928Y-106078146D01*
X166295090Y-106162694D01*
X166302262Y-106167115D01*
X166382005Y-106193564D01*
X166463611Y-106220632D01*
X166463613Y-106220632D01*
X166470139Y-106222797D01*
X166476975Y-106223497D01*
X166476978Y-106223498D01*
X166520031Y-106227909D01*
X166574600Y-106233500D01*
X167350400Y-106233500D01*
X167353646Y-106233163D01*
X167353650Y-106233163D01*
X167449308Y-106223238D01*
X167449312Y-106223237D01*
X167456166Y-106222526D01*
X167462702Y-106220345D01*
X167462704Y-106220345D01*
X167594806Y-106176272D01*
X167623946Y-106166550D01*
X167774348Y-106073478D01*
X167899305Y-105948303D01*
X167901906Y-105944084D01*
X167959030Y-105903583D01*
X168029953Y-105900351D01*
X168091365Y-105935976D01*
X168097922Y-105943530D01*
X168101522Y-105949348D01*
X168226697Y-106074305D01*
X168232927Y-106078145D01*
X168232928Y-106078146D01*
X168370090Y-106162694D01*
X168377262Y-106167115D01*
X168457005Y-106193564D01*
X168538611Y-106220632D01*
X168538613Y-106220632D01*
X168545139Y-106222797D01*
X168551975Y-106223497D01*
X168551978Y-106223498D01*
X168595031Y-106227909D01*
X168649600Y-106233500D01*
X169425400Y-106233500D01*
X169428646Y-106233163D01*
X169428650Y-106233163D01*
X169524308Y-106223238D01*
X169524312Y-106223237D01*
X169531166Y-106222526D01*
X169537702Y-106220345D01*
X169537704Y-106220345D01*
X169669806Y-106176272D01*
X169698946Y-106166550D01*
X169849348Y-106073478D01*
X169974305Y-105948303D01*
X170067115Y-105797738D01*
X170122797Y-105629861D01*
X170133500Y-105525400D01*
X170133500Y-104474600D01*
X170122526Y-104368834D01*
X170066550Y-104201054D01*
X169973478Y-104050652D01*
X169848303Y-103925695D01*
X169730883Y-103853316D01*
X169683391Y-103800545D01*
X169671000Y-103746057D01*
X169671000Y-103660877D01*
X169691002Y-103592756D01*
X169703364Y-103576566D01*
X169734621Y-103541852D01*
X169734622Y-103541851D01*
X169739040Y-103536944D01*
X169803440Y-103425400D01*
X169831223Y-103377279D01*
X169831224Y-103377278D01*
X169834527Y-103371556D01*
X169893542Y-103189928D01*
X169909563Y-103037500D01*
X171123996Y-103037500D01*
X171124686Y-103044065D01*
X171140017Y-103189928D01*
X171143958Y-103227428D01*
X171202973Y-103409056D01*
X171206276Y-103414778D01*
X171206277Y-103414779D01*
X171240186Y-103473510D01*
X171298460Y-103574444D01*
X171302878Y-103579351D01*
X171302879Y-103579352D01*
X171385399Y-103671000D01*
X171426247Y-103716366D01*
X171580748Y-103828618D01*
X171586776Y-103831302D01*
X171586778Y-103831303D01*
X171638927Y-103854521D01*
X171755212Y-103906294D01*
X171846486Y-103925695D01*
X171935556Y-103944628D01*
X171935561Y-103944628D01*
X171942013Y-103946000D01*
X172132987Y-103946000D01*
X172139439Y-103944628D01*
X172139444Y-103944628D01*
X172228514Y-103925695D01*
X172319788Y-103906294D01*
X172436073Y-103854521D01*
X172488222Y-103831303D01*
X172488224Y-103831302D01*
X172494252Y-103828618D01*
X172564646Y-103777474D01*
X172629028Y-103730697D01*
X172648753Y-103716366D01*
X172653168Y-103711463D01*
X172658080Y-103707040D01*
X172659205Y-103708289D01*
X172712514Y-103675449D01*
X172745700Y-103671000D01*
X172745954Y-103671000D01*
X172814075Y-103691002D01*
X172853098Y-103730697D01*
X172926522Y-103849348D01*
X173051697Y-103974305D01*
X173057927Y-103978145D01*
X173057928Y-103978146D01*
X173195090Y-104062694D01*
X173202262Y-104067115D01*
X173282005Y-104093564D01*
X173363611Y-104120632D01*
X173363613Y-104120632D01*
X173370139Y-104122797D01*
X173376975Y-104123497D01*
X173376978Y-104123498D01*
X173420031Y-104127909D01*
X173474600Y-104133500D01*
X174525400Y-104133500D01*
X174528646Y-104133163D01*
X174528650Y-104133163D01*
X174624308Y-104123238D01*
X174624312Y-104123237D01*
X174631166Y-104122526D01*
X174637702Y-104120345D01*
X174637704Y-104120345D01*
X174769806Y-104076272D01*
X174798946Y-104066550D01*
X174949348Y-103973478D01*
X175074305Y-103848303D01*
X175084784Y-103831303D01*
X175163275Y-103703968D01*
X175163276Y-103703966D01*
X175167115Y-103697738D01*
X175222797Y-103529861D01*
X175233500Y-103425400D01*
X175233500Y-103037500D01*
X176123996Y-103037500D01*
X176124686Y-103044065D01*
X176140017Y-103189928D01*
X176143958Y-103227428D01*
X176202973Y-103409056D01*
X176206276Y-103414778D01*
X176206277Y-103414779D01*
X176240186Y-103473510D01*
X176298460Y-103574444D01*
X176302878Y-103579351D01*
X176302879Y-103579352D01*
X176385399Y-103671000D01*
X176426247Y-103716366D01*
X176580748Y-103828618D01*
X176586776Y-103831302D01*
X176586778Y-103831303D01*
X176638927Y-103854521D01*
X176755212Y-103906294D01*
X176846486Y-103925695D01*
X176935556Y-103944628D01*
X176935561Y-103944628D01*
X176942013Y-103946000D01*
X177132987Y-103946000D01*
X177139439Y-103944628D01*
X177139444Y-103944628D01*
X177228514Y-103925695D01*
X177319788Y-103906294D01*
X177436073Y-103854521D01*
X177488222Y-103831303D01*
X177488224Y-103831302D01*
X177494252Y-103828618D01*
X177564646Y-103777474D01*
X177629028Y-103730697D01*
X177648753Y-103716366D01*
X177653168Y-103711463D01*
X177658080Y-103707040D01*
X177659205Y-103708289D01*
X177712514Y-103675449D01*
X177745700Y-103671000D01*
X177745954Y-103671000D01*
X177814075Y-103691002D01*
X177853098Y-103730697D01*
X177926522Y-103849348D01*
X178051697Y-103974305D01*
X178057927Y-103978145D01*
X178057928Y-103978146D01*
X178195090Y-104062694D01*
X178202262Y-104067115D01*
X178282005Y-104093564D01*
X178363611Y-104120632D01*
X178363613Y-104120632D01*
X178370139Y-104122797D01*
X178376975Y-104123497D01*
X178376978Y-104123498D01*
X178420031Y-104127909D01*
X178474600Y-104133500D01*
X179525400Y-104133500D01*
X179528646Y-104133163D01*
X179528650Y-104133163D01*
X179624308Y-104123238D01*
X179624312Y-104123237D01*
X179631166Y-104122526D01*
X179637702Y-104120345D01*
X179637704Y-104120345D01*
X179769806Y-104076272D01*
X179798946Y-104066550D01*
X179949348Y-103973478D01*
X180074305Y-103848303D01*
X180084784Y-103831303D01*
X180163275Y-103703968D01*
X180163276Y-103703966D01*
X180167115Y-103697738D01*
X180222797Y-103529861D01*
X180233500Y-103425400D01*
X180233500Y-102649600D01*
X180222526Y-102543834D01*
X180166550Y-102376054D01*
X180073478Y-102225652D01*
X179948303Y-102100695D01*
X179943765Y-102097898D01*
X179903176Y-102040647D01*
X179899946Y-101969724D01*
X179935572Y-101908313D01*
X179944068Y-101900938D01*
X179954207Y-101892902D01*
X180068739Y-101778171D01*
X180077751Y-101766760D01*
X180162816Y-101628757D01*
X180168963Y-101615576D01*
X180220138Y-101461290D01*
X180223005Y-101447914D01*
X180232672Y-101353562D01*
X180233000Y-101347146D01*
X180233000Y-101234615D01*
X180228525Y-101219376D01*
X180227135Y-101218171D01*
X180219452Y-101216500D01*
X177785116Y-101216500D01*
X177769877Y-101220975D01*
X177768672Y-101222365D01*
X177767001Y-101230048D01*
X177767001Y-101347095D01*
X177767338Y-101353614D01*
X177777257Y-101449206D01*
X177780149Y-101462600D01*
X177831588Y-101616784D01*
X177837761Y-101629962D01*
X177923063Y-101767807D01*
X177932099Y-101779208D01*
X178046828Y-101893738D01*
X178055762Y-101900794D01*
X178096823Y-101958712D01*
X178100053Y-102029635D01*
X178064426Y-102091046D01*
X178056593Y-102097846D01*
X178050652Y-102101522D01*
X177925695Y-102226697D01*
X177869877Y-102317251D01*
X177853317Y-102344116D01*
X177800545Y-102391609D01*
X177746057Y-102404000D01*
X177745700Y-102404000D01*
X177677579Y-102383998D01*
X177658353Y-102367657D01*
X177658080Y-102367960D01*
X177653168Y-102363537D01*
X177648753Y-102358634D01*
X177494252Y-102246382D01*
X177488224Y-102243698D01*
X177488222Y-102243697D01*
X177325819Y-102171391D01*
X177325818Y-102171391D01*
X177319788Y-102168706D01*
X177226388Y-102148853D01*
X177139444Y-102130372D01*
X177139439Y-102130372D01*
X177132987Y-102129000D01*
X176942013Y-102129000D01*
X176935561Y-102130372D01*
X176935556Y-102130372D01*
X176848613Y-102148853D01*
X176755212Y-102168706D01*
X176749182Y-102171391D01*
X176749181Y-102171391D01*
X176586778Y-102243697D01*
X176586776Y-102243698D01*
X176580748Y-102246382D01*
X176426247Y-102358634D01*
X176421826Y-102363544D01*
X176421825Y-102363545D01*
X176327077Y-102468774D01*
X176298460Y-102500556D01*
X176269514Y-102550692D01*
X176210524Y-102652866D01*
X176202973Y-102665944D01*
X176143958Y-102847572D01*
X176123996Y-103037500D01*
X175233500Y-103037500D01*
X175233500Y-102649600D01*
X175222526Y-102543834D01*
X175166550Y-102376054D01*
X175073478Y-102225652D01*
X174948303Y-102100695D01*
X174943765Y-102097898D01*
X174903176Y-102040647D01*
X174899946Y-101969724D01*
X174935572Y-101908313D01*
X174944068Y-101900938D01*
X174954207Y-101892902D01*
X175068739Y-101778171D01*
X175077751Y-101766760D01*
X175162816Y-101628757D01*
X175168963Y-101615576D01*
X175220138Y-101461290D01*
X175223005Y-101447914D01*
X175232672Y-101353562D01*
X175233000Y-101347146D01*
X175233000Y-101234615D01*
X175228525Y-101219376D01*
X175227135Y-101218171D01*
X175219452Y-101216500D01*
X172785116Y-101216500D01*
X172769877Y-101220975D01*
X172768672Y-101222365D01*
X172767001Y-101230048D01*
X172767001Y-101347095D01*
X172767338Y-101353614D01*
X172777257Y-101449206D01*
X172780149Y-101462600D01*
X172831588Y-101616784D01*
X172837761Y-101629962D01*
X172923063Y-101767807D01*
X172932099Y-101779208D01*
X173046828Y-101893738D01*
X173055762Y-101900794D01*
X173096823Y-101958712D01*
X173100053Y-102029635D01*
X173064426Y-102091046D01*
X173056593Y-102097846D01*
X173050652Y-102101522D01*
X172925695Y-102226697D01*
X172869877Y-102317251D01*
X172853317Y-102344116D01*
X172800545Y-102391609D01*
X172746057Y-102404000D01*
X172745700Y-102404000D01*
X172677579Y-102383998D01*
X172658353Y-102367657D01*
X172658080Y-102367960D01*
X172653168Y-102363537D01*
X172648753Y-102358634D01*
X172494252Y-102246382D01*
X172488224Y-102243698D01*
X172488222Y-102243697D01*
X172325819Y-102171391D01*
X172325818Y-102171391D01*
X172319788Y-102168706D01*
X172226388Y-102148853D01*
X172139444Y-102130372D01*
X172139439Y-102130372D01*
X172132987Y-102129000D01*
X171942013Y-102129000D01*
X171935561Y-102130372D01*
X171935556Y-102130372D01*
X171848613Y-102148853D01*
X171755212Y-102168706D01*
X171749182Y-102171391D01*
X171749181Y-102171391D01*
X171586778Y-102243697D01*
X171586776Y-102243698D01*
X171580748Y-102246382D01*
X171426247Y-102358634D01*
X171421826Y-102363544D01*
X171421825Y-102363545D01*
X171327077Y-102468774D01*
X171298460Y-102500556D01*
X171269514Y-102550692D01*
X171210524Y-102652866D01*
X171202973Y-102665944D01*
X171143958Y-102847572D01*
X171123996Y-103037500D01*
X169909563Y-103037500D01*
X169913504Y-103000000D01*
X169898173Y-102854135D01*
X169894232Y-102816635D01*
X169894232Y-102816633D01*
X169893542Y-102810072D01*
X169834527Y-102628444D01*
X169739040Y-102463056D01*
X169653143Y-102367657D01*
X169615675Y-102326045D01*
X169615674Y-102326044D01*
X169611253Y-102321134D01*
X169456752Y-102208882D01*
X169450724Y-102206198D01*
X169450722Y-102206197D01*
X169288319Y-102133891D01*
X169288318Y-102133891D01*
X169282288Y-102131206D01*
X169167016Y-102106704D01*
X169101944Y-102092872D01*
X169101939Y-102092872D01*
X169095487Y-102091500D01*
X168904513Y-102091500D01*
X168898061Y-102092872D01*
X168898056Y-102092872D01*
X168832984Y-102106704D01*
X168717712Y-102131206D01*
X168711682Y-102133891D01*
X168711681Y-102133891D01*
X168560749Y-102201090D01*
X168490382Y-102210524D01*
X168426085Y-102180417D01*
X168388271Y-102120329D01*
X168383500Y-102085983D01*
X168383500Y-100914017D01*
X168403502Y-100845896D01*
X168457158Y-100799403D01*
X168527432Y-100789299D01*
X168560749Y-100798910D01*
X168561857Y-100799403D01*
X168717712Y-100868794D01*
X168811112Y-100888647D01*
X168898056Y-100907128D01*
X168898061Y-100907128D01*
X168904513Y-100908500D01*
X169095487Y-100908500D01*
X169101939Y-100907128D01*
X169101944Y-100907128D01*
X169188887Y-100888647D01*
X169282288Y-100868794D01*
X169333718Y-100845896D01*
X169450722Y-100793803D01*
X169450724Y-100793802D01*
X169456752Y-100791118D01*
X169595399Y-100690385D01*
X172767000Y-100690385D01*
X172771475Y-100705624D01*
X172772865Y-100706829D01*
X172780548Y-100708500D01*
X173727885Y-100708500D01*
X173743124Y-100704025D01*
X173744329Y-100702635D01*
X173746000Y-100694952D01*
X173746000Y-100690385D01*
X174254000Y-100690385D01*
X174258475Y-100705624D01*
X174259865Y-100706829D01*
X174267548Y-100708500D01*
X175214884Y-100708500D01*
X175230123Y-100704025D01*
X175231328Y-100702635D01*
X175232999Y-100694952D01*
X175232999Y-100577905D01*
X175232662Y-100571386D01*
X175222743Y-100475794D01*
X175219851Y-100462400D01*
X175168412Y-100308216D01*
X175162239Y-100295038D01*
X175076937Y-100157193D01*
X175067901Y-100145792D01*
X174953171Y-100031261D01*
X174941760Y-100022249D01*
X174803757Y-99937184D01*
X174790576Y-99931037D01*
X174636290Y-99879862D01*
X174622914Y-99876995D01*
X174528562Y-99867328D01*
X174522145Y-99867000D01*
X174272115Y-99867000D01*
X174256876Y-99871475D01*
X174255671Y-99872865D01*
X174254000Y-99880548D01*
X174254000Y-100690385D01*
X173746000Y-100690385D01*
X173746000Y-99885116D01*
X173741525Y-99869877D01*
X173740135Y-99868672D01*
X173732452Y-99867001D01*
X173477905Y-99867001D01*
X173471386Y-99867338D01*
X173375794Y-99877257D01*
X173362400Y-99880149D01*
X173208216Y-99931588D01*
X173195038Y-99937761D01*
X173057193Y-100023063D01*
X173045792Y-100032099D01*
X172931261Y-100146829D01*
X172922249Y-100158240D01*
X172837184Y-100296243D01*
X172831037Y-100309424D01*
X172779862Y-100463710D01*
X172776995Y-100477086D01*
X172767328Y-100571438D01*
X172767000Y-100577855D01*
X172767000Y-100690385D01*
X169595399Y-100690385D01*
X169611253Y-100678866D01*
X169702204Y-100577855D01*
X169734621Y-100541852D01*
X169734622Y-100541851D01*
X169739040Y-100536944D01*
X169834527Y-100371556D01*
X169893542Y-100189928D01*
X169911262Y-100021329D01*
X169938275Y-99955673D01*
X169996497Y-99915043D01*
X170036572Y-99908500D01*
X170095487Y-99908500D01*
X170101939Y-99907128D01*
X170101944Y-99907128D01*
X170205499Y-99885116D01*
X170282288Y-99868794D01*
X170314346Y-99854521D01*
X170450722Y-99793803D01*
X170450724Y-99793802D01*
X170456752Y-99791118D01*
X170611253Y-99678866D01*
X170739040Y-99536944D01*
X170834527Y-99371556D01*
X170893542Y-99189928D01*
X170913504Y-99000000D01*
X170893542Y-98810072D01*
X170834527Y-98628444D01*
X170739040Y-98463056D01*
X170611253Y-98321134D01*
X170456752Y-98208882D01*
X170450724Y-98206198D01*
X170450722Y-98206197D01*
X170288319Y-98133891D01*
X170288318Y-98133891D01*
X170282288Y-98131206D01*
X170167016Y-98106704D01*
X170101944Y-98092872D01*
X170101939Y-98092872D01*
X170095487Y-98091500D01*
X170039595Y-98091500D01*
X169971474Y-98071498D01*
X169950500Y-98054595D01*
X169753652Y-97857747D01*
X169746112Y-97849461D01*
X169742000Y-97842982D01*
X169692348Y-97796356D01*
X169689507Y-97793602D01*
X169669770Y-97773865D01*
X169666573Y-97771385D01*
X169657551Y-97763680D01*
X169631100Y-97738841D01*
X169625321Y-97733414D01*
X169618375Y-97729595D01*
X169618372Y-97729593D01*
X169607566Y-97723652D01*
X169591047Y-97712801D01*
X169590583Y-97712441D01*
X169575041Y-97700386D01*
X169567772Y-97697241D01*
X169567768Y-97697238D01*
X169534463Y-97682826D01*
X169523823Y-97677615D01*
X169523310Y-97677333D01*
X169473246Y-97626994D01*
X169457999Y-97566912D01*
X169457999Y-97530330D01*
X169457630Y-97523518D01*
X169456554Y-97513614D01*
X169456554Y-97486393D01*
X169457631Y-97476477D01*
X169458000Y-97469673D01*
X169458000Y-97443115D01*
X169453525Y-97427876D01*
X169452135Y-97426671D01*
X169444452Y-97425000D01*
X169059500Y-97425000D01*
X168991379Y-97404998D01*
X168944886Y-97351342D01*
X168933500Y-97299000D01*
X168933500Y-97201000D01*
X168953502Y-97132879D01*
X169007158Y-97086386D01*
X169059500Y-97075000D01*
X169439884Y-97075000D01*
X169455123Y-97070525D01*
X169456328Y-97069135D01*
X169457999Y-97061452D01*
X169457999Y-97030331D01*
X169457629Y-97023510D01*
X169452105Y-96972648D01*
X169448479Y-96957396D01*
X169403324Y-96836946D01*
X169394786Y-96821351D01*
X169318285Y-96719276D01*
X169305724Y-96706715D01*
X169203649Y-96630214D01*
X169188054Y-96621676D01*
X169067606Y-96576522D01*
X169052351Y-96572895D01*
X169001486Y-96567369D01*
X168994672Y-96567000D01*
X168955615Y-96567000D01*
X168940376Y-96571475D01*
X168939170Y-96572867D01*
X168938417Y-96576327D01*
X168904392Y-96638639D01*
X168842079Y-96672664D01*
X168771264Y-96667598D01*
X168739737Y-96650372D01*
X168671705Y-96599385D01*
X168601043Y-96572895D01*
X168596610Y-96571233D01*
X168595507Y-96570577D01*
X168592494Y-96569690D01*
X168587498Y-96567817D01*
X168588111Y-96566183D01*
X168586080Y-96564976D01*
X168585321Y-96567001D01*
X168542711Y-96551027D01*
X168542709Y-96551027D01*
X168535316Y-96548255D01*
X168527468Y-96547402D01*
X168527466Y-96547402D01*
X168476531Y-96541869D01*
X168473134Y-96541500D01*
X168026866Y-96541500D01*
X168023475Y-96541868D01*
X168023465Y-96541869D01*
X168013607Y-96542940D01*
X167986393Y-96542940D01*
X167976535Y-96541869D01*
X167976525Y-96541868D01*
X167973134Y-96541500D01*
X167526866Y-96541500D01*
X167464684Y-96548255D01*
X167437404Y-96558482D01*
X167393174Y-96566500D01*
X167001866Y-96566500D01*
X166939684Y-96573255D01*
X166803295Y-96624385D01*
X166686739Y-96711739D01*
X166599385Y-96828295D01*
X166548255Y-96964684D01*
X166541500Y-97026866D01*
X166541500Y-97473134D01*
X166541868Y-97476525D01*
X166541869Y-97476535D01*
X166542940Y-97486393D01*
X166542940Y-97513607D01*
X166541869Y-97523465D01*
X166541868Y-97523475D01*
X166541500Y-97526866D01*
X166541500Y-97973134D01*
X166541868Y-97976525D01*
X166541869Y-97976535D01*
X166542940Y-97986393D01*
X166542940Y-98013607D01*
X166541869Y-98023465D01*
X166541868Y-98023475D01*
X166541500Y-98026866D01*
X166541500Y-98473134D01*
X166541868Y-98476525D01*
X166541869Y-98476535D01*
X166542940Y-98486393D01*
X166542940Y-98513607D01*
X166541869Y-98523465D01*
X166541868Y-98523475D01*
X166541500Y-98526866D01*
X166541500Y-98973134D01*
X166548255Y-99035316D01*
X166599385Y-99171705D01*
X166686739Y-99288261D01*
X166803295Y-99375615D01*
X166939684Y-99426745D01*
X167001866Y-99433500D01*
X167001742Y-99434639D01*
X167064234Y-99456711D01*
X167107768Y-99512794D01*
X167116500Y-99558884D01*
X167116500Y-103640500D01*
X167096498Y-103708621D01*
X167042842Y-103755114D01*
X166990500Y-103766500D01*
X166574600Y-103766500D01*
X166571354Y-103766837D01*
X166571350Y-103766837D01*
X166475692Y-103776762D01*
X166475688Y-103776763D01*
X166468834Y-103777474D01*
X166462298Y-103779655D01*
X166462296Y-103779655D01*
X166399682Y-103800545D01*
X166301054Y-103833450D01*
X166150652Y-103926522D01*
X166025695Y-104051697D01*
X166021855Y-104057927D01*
X166021854Y-104057928D01*
X165975271Y-104133500D01*
X165932885Y-104202262D01*
X165877203Y-104370139D01*
X165866500Y-104474600D01*
X165866500Y-105525400D01*
X157508000Y-105525400D01*
X157508000Y-93425400D01*
X159766500Y-93425400D01*
X159766837Y-93428646D01*
X159766837Y-93428650D01*
X159776533Y-93522095D01*
X159777474Y-93531166D01*
X159779655Y-93537702D01*
X159779655Y-93537704D01*
X159789642Y-93567639D01*
X159833450Y-93698946D01*
X159926522Y-93849348D01*
X160051697Y-93974305D01*
X160057927Y-93978145D01*
X160057928Y-93978146D01*
X160195090Y-94062694D01*
X160202262Y-94067115D01*
X160235520Y-94078146D01*
X160280167Y-94092955D01*
X160338527Y-94133386D01*
X160365764Y-94198950D01*
X160366500Y-94212548D01*
X160366500Y-94297476D01*
X160346498Y-94365597D01*
X160334142Y-94381779D01*
X160260960Y-94463056D01*
X160165473Y-94628444D01*
X160106458Y-94810072D01*
X160086496Y-95000000D01*
X160087186Y-95006565D01*
X160100959Y-95137604D01*
X160106458Y-95189928D01*
X160165473Y-95371556D01*
X160260960Y-95536944D01*
X160388747Y-95678866D01*
X160543248Y-95791118D01*
X160549276Y-95793802D01*
X160549278Y-95793803D01*
X160688039Y-95855583D01*
X160717712Y-95868794D01*
X160811113Y-95888647D01*
X160898056Y-95907128D01*
X160898061Y-95907128D01*
X160904513Y-95908500D01*
X161095487Y-95908500D01*
X161101939Y-95907128D01*
X161101944Y-95907128D01*
X161188887Y-95888647D01*
X161282288Y-95868794D01*
X161311961Y-95855583D01*
X161450722Y-95793803D01*
X161450724Y-95793802D01*
X161456752Y-95791118D01*
X161611253Y-95678866D01*
X161739040Y-95536944D01*
X161834527Y-95371556D01*
X161893542Y-95189928D01*
X161899042Y-95137604D01*
X161912814Y-95006565D01*
X161913504Y-95000000D01*
X161893542Y-94810072D01*
X161834527Y-94628444D01*
X161739040Y-94463056D01*
X161665863Y-94381785D01*
X161635147Y-94317779D01*
X161633500Y-94297476D01*
X161633500Y-94212538D01*
X161653502Y-94144417D01*
X161707158Y-94097924D01*
X161719624Y-94093014D01*
X161780653Y-94072653D01*
X161798946Y-94066550D01*
X161949348Y-93973478D01*
X162074305Y-93848303D01*
X162129780Y-93758307D01*
X162163275Y-93703968D01*
X162163276Y-93703966D01*
X162167115Y-93697738D01*
X162222797Y-93529861D01*
X162224585Y-93512417D01*
X162233172Y-93428598D01*
X162233500Y-93425400D01*
X162233500Y-92649600D01*
X162222526Y-92543834D01*
X162220046Y-92536399D01*
X162168868Y-92383002D01*
X162166550Y-92376054D01*
X162073478Y-92225652D01*
X161948303Y-92100695D01*
X161943765Y-92097898D01*
X161903176Y-92040647D01*
X161900218Y-91975690D01*
X164110806Y-91975690D01*
X164111496Y-91982255D01*
X164128731Y-92146233D01*
X164130768Y-92165618D01*
X164189783Y-92347246D01*
X164193086Y-92352968D01*
X164193087Y-92352969D01*
X164202818Y-92369824D01*
X164285270Y-92512634D01*
X164289688Y-92517541D01*
X164289689Y-92517542D01*
X164408635Y-92649645D01*
X164413057Y-92654556D01*
X164470332Y-92696169D01*
X164557179Y-92759267D01*
X164567558Y-92766808D01*
X164573586Y-92769492D01*
X164573588Y-92769493D01*
X164647515Y-92802407D01*
X164742022Y-92844484D01*
X164820688Y-92861205D01*
X164922366Y-92882818D01*
X164922371Y-92882818D01*
X164928823Y-92884190D01*
X165119797Y-92884190D01*
X165126249Y-92882818D01*
X165126254Y-92882818D01*
X165227932Y-92861205D01*
X165306598Y-92844484D01*
X165401105Y-92802407D01*
X165475032Y-92769493D01*
X165475034Y-92769492D01*
X165481062Y-92766808D01*
X165491441Y-92759267D01*
X165558309Y-92735410D01*
X165627461Y-92751492D01*
X165676940Y-92802407D01*
X165691500Y-92861205D01*
X165691500Y-93166502D01*
X165694438Y-93203831D01*
X165740855Y-93363601D01*
X165744892Y-93370427D01*
X165821509Y-93499980D01*
X165821511Y-93499983D01*
X165825547Y-93506807D01*
X165943193Y-93624453D01*
X165950017Y-93628489D01*
X165950020Y-93628491D01*
X165965423Y-93637600D01*
X166086399Y-93709145D01*
X166094010Y-93711356D01*
X166094012Y-93711357D01*
X166146231Y-93726528D01*
X166246169Y-93755562D01*
X166252574Y-93756066D01*
X166252579Y-93756067D01*
X166281042Y-93758307D01*
X166281050Y-93758307D01*
X166283498Y-93758500D01*
X167441502Y-93758500D01*
X167443950Y-93758307D01*
X167443958Y-93758307D01*
X167472421Y-93756067D01*
X167472426Y-93756066D01*
X167478831Y-93755562D01*
X167578769Y-93726528D01*
X167630988Y-93711357D01*
X167630990Y-93711356D01*
X167638601Y-93709145D01*
X167759577Y-93637600D01*
X167774980Y-93628491D01*
X167774983Y-93628489D01*
X167781807Y-93624453D01*
X167899453Y-93506807D01*
X167901706Y-93502998D01*
X167957996Y-93462345D01*
X168028888Y-93458494D01*
X168090609Y-93493582D01*
X168097276Y-93501276D01*
X168100547Y-93506807D01*
X168218193Y-93624453D01*
X168225017Y-93628489D01*
X168225020Y-93628491D01*
X168240423Y-93637600D01*
X168361399Y-93709145D01*
X168369010Y-93711356D01*
X168369012Y-93711357D01*
X168421231Y-93726528D01*
X168521169Y-93755562D01*
X168527574Y-93756066D01*
X168527579Y-93756067D01*
X168556042Y-93758307D01*
X168556050Y-93758307D01*
X168558498Y-93758500D01*
X169716502Y-93758500D01*
X169718950Y-93758307D01*
X169718958Y-93758307D01*
X169747421Y-93756067D01*
X169747426Y-93756066D01*
X169753831Y-93755562D01*
X169853769Y-93726528D01*
X169905988Y-93711357D01*
X169905990Y-93711356D01*
X169913601Y-93709145D01*
X170034577Y-93637600D01*
X170049980Y-93628491D01*
X170049983Y-93628489D01*
X170056807Y-93624453D01*
X170159165Y-93522095D01*
X171867001Y-93522095D01*
X171867338Y-93528614D01*
X171877257Y-93624206D01*
X171880149Y-93637600D01*
X171931588Y-93791784D01*
X171937761Y-93804962D01*
X172023063Y-93942807D01*
X172032099Y-93954208D01*
X172146829Y-94068739D01*
X172158240Y-94077751D01*
X172296243Y-94162816D01*
X172309424Y-94168963D01*
X172463710Y-94220138D01*
X172477086Y-94223005D01*
X172571438Y-94232672D01*
X172577854Y-94233000D01*
X172690385Y-94233000D01*
X172705624Y-94228525D01*
X172706829Y-94227135D01*
X172708500Y-94219452D01*
X172708500Y-93272115D01*
X172704025Y-93256876D01*
X172702635Y-93255671D01*
X172694952Y-93254000D01*
X171885116Y-93254000D01*
X171869877Y-93258475D01*
X171868672Y-93259865D01*
X171867001Y-93267548D01*
X171867001Y-93522095D01*
X170159165Y-93522095D01*
X170174453Y-93506807D01*
X170178489Y-93499983D01*
X170178491Y-93499980D01*
X170255108Y-93370427D01*
X170259145Y-93363601D01*
X170305562Y-93203831D01*
X170308500Y-93166502D01*
X170308500Y-92733498D01*
X170308307Y-92731042D01*
X170308059Y-92727885D01*
X171867000Y-92727885D01*
X171871475Y-92743124D01*
X171872865Y-92744329D01*
X171880548Y-92746000D01*
X172690385Y-92746000D01*
X172705624Y-92741525D01*
X172706829Y-92740135D01*
X172708500Y-92732452D01*
X172708500Y-91785116D01*
X172704025Y-91769877D01*
X172702635Y-91768672D01*
X172694952Y-91767001D01*
X172577905Y-91767001D01*
X172571386Y-91767338D01*
X172475794Y-91777257D01*
X172462400Y-91780149D01*
X172308216Y-91831588D01*
X172295038Y-91837761D01*
X172157193Y-91923063D01*
X172145792Y-91932099D01*
X172031261Y-92046829D01*
X172022249Y-92058240D01*
X171937184Y-92196243D01*
X171931037Y-92209424D01*
X171879862Y-92363710D01*
X171876995Y-92377086D01*
X171867328Y-92471438D01*
X171867000Y-92477855D01*
X171867000Y-92727885D01*
X170308059Y-92727885D01*
X170306067Y-92702579D01*
X170306066Y-92702574D01*
X170305562Y-92696169D01*
X170263671Y-92551978D01*
X170261357Y-92544012D01*
X170261356Y-92544010D01*
X170259145Y-92536399D01*
X170220727Y-92471438D01*
X170178491Y-92400020D01*
X170178489Y-92400017D01*
X170174453Y-92393193D01*
X170056807Y-92275547D01*
X170049983Y-92271511D01*
X170049980Y-92271509D01*
X169932889Y-92202262D01*
X169913601Y-92190855D01*
X169905990Y-92188644D01*
X169905988Y-92188643D01*
X169848343Y-92171896D01*
X169753831Y-92144438D01*
X169747426Y-92143934D01*
X169747421Y-92143933D01*
X169718958Y-92141693D01*
X169718950Y-92141693D01*
X169716502Y-92141500D01*
X168609020Y-92141500D01*
X168540899Y-92121498D01*
X168494406Y-92067842D01*
X168483020Y-92015500D01*
X168483020Y-91984000D01*
X168503022Y-91915879D01*
X168556678Y-91869386D01*
X168609020Y-91858000D01*
X168865385Y-91858000D01*
X168880624Y-91853525D01*
X168881829Y-91852135D01*
X168883500Y-91844452D01*
X168883500Y-91184980D01*
X168903502Y-91116859D01*
X168957158Y-91070366D01*
X169009500Y-91058980D01*
X169265500Y-91058980D01*
X169333621Y-91078982D01*
X169380114Y-91132638D01*
X169391500Y-91184980D01*
X169391500Y-91839884D01*
X169395975Y-91855123D01*
X169397365Y-91856328D01*
X169405048Y-91857999D01*
X169713984Y-91857999D01*
X169718920Y-91857805D01*
X169747336Y-91855570D01*
X169759931Y-91853270D01*
X169905790Y-91810893D01*
X169920221Y-91804648D01*
X170049678Y-91728089D01*
X170062104Y-91718449D01*
X170168449Y-91612104D01*
X170178089Y-91599678D01*
X170254648Y-91470221D01*
X170260893Y-91455790D01*
X170303269Y-91309935D01*
X170305570Y-91297333D01*
X170307807Y-91268916D01*
X170308000Y-91263986D01*
X170308000Y-91184980D01*
X170328002Y-91116859D01*
X170381658Y-91070366D01*
X170434000Y-91058980D01*
X173773379Y-91058980D01*
X173841500Y-91078982D01*
X173862474Y-91095885D01*
X174402220Y-91635631D01*
X174436246Y-91697943D01*
X174431181Y-91768758D01*
X174388634Y-91825594D01*
X174375914Y-91833224D01*
X174376054Y-91833450D01*
X174225652Y-91926522D01*
X174100695Y-92051697D01*
X174097898Y-92056235D01*
X174040647Y-92096824D01*
X173969724Y-92100054D01*
X173908313Y-92064428D01*
X173900938Y-92055932D01*
X173892902Y-92045793D01*
X173778171Y-91931261D01*
X173766760Y-91922249D01*
X173628757Y-91837184D01*
X173615576Y-91831037D01*
X173461290Y-91779862D01*
X173447914Y-91776995D01*
X173353562Y-91767328D01*
X173347145Y-91767000D01*
X173234615Y-91767000D01*
X173219376Y-91771475D01*
X173218171Y-91772865D01*
X173216500Y-91780548D01*
X173216500Y-94214884D01*
X173220975Y-94230123D01*
X173222365Y-94231328D01*
X173230048Y-94232999D01*
X173347095Y-94232999D01*
X173353614Y-94232662D01*
X173449206Y-94222743D01*
X173462600Y-94219851D01*
X173616784Y-94168412D01*
X173629962Y-94162239D01*
X173767807Y-94076937D01*
X173779208Y-94067901D01*
X173893738Y-93953172D01*
X173900794Y-93944238D01*
X173958712Y-93903177D01*
X174029635Y-93899947D01*
X174091046Y-93935574D01*
X174097846Y-93943407D01*
X174101522Y-93949348D01*
X174106704Y-93954521D01*
X174125694Y-93973478D01*
X174226697Y-94074305D01*
X174344117Y-94146684D01*
X174391609Y-94199455D01*
X174404000Y-94253943D01*
X174404000Y-94255828D01*
X174383998Y-94323949D01*
X174371642Y-94340131D01*
X174260960Y-94463056D01*
X174165473Y-94628444D01*
X174106458Y-94810072D01*
X174086496Y-95000000D01*
X174087186Y-95006565D01*
X174100959Y-95137604D01*
X174106458Y-95189928D01*
X174165473Y-95371556D01*
X174260960Y-95536944D01*
X174388747Y-95678866D01*
X174543248Y-95791118D01*
X174549276Y-95793802D01*
X174549278Y-95793803D01*
X174688039Y-95855583D01*
X174717712Y-95868794D01*
X174811113Y-95888647D01*
X174898056Y-95907128D01*
X174898061Y-95907128D01*
X174904513Y-95908500D01*
X175095487Y-95908500D01*
X175101939Y-95907128D01*
X175101944Y-95907128D01*
X175188887Y-95888647D01*
X175282288Y-95868794D01*
X175311961Y-95855583D01*
X175450722Y-95793803D01*
X175450724Y-95793802D01*
X175456752Y-95791118D01*
X175611253Y-95678866D01*
X175739040Y-95536944D01*
X175834527Y-95371556D01*
X175893542Y-95189928D01*
X175899042Y-95137604D01*
X175912814Y-95006565D01*
X175913504Y-95000000D01*
X175893542Y-94810072D01*
X175834527Y-94628444D01*
X175739040Y-94463056D01*
X175703364Y-94423434D01*
X175672647Y-94359426D01*
X175671000Y-94339123D01*
X175671000Y-94254046D01*
X175691002Y-94185925D01*
X175730697Y-94146902D01*
X175843120Y-94077332D01*
X175849348Y-94073478D01*
X175974305Y-93948303D01*
X176004112Y-93899947D01*
X176063275Y-93803968D01*
X176063276Y-93803966D01*
X176067115Y-93797738D01*
X176122797Y-93629861D01*
X176122940Y-93628462D01*
X176155771Y-93567906D01*
X176217981Y-93533694D01*
X176288811Y-93538547D01*
X176334228Y-93567639D01*
X178329595Y-95563006D01*
X178363621Y-95625318D01*
X178366500Y-95652101D01*
X178366500Y-95787462D01*
X178346498Y-95855583D01*
X178292842Y-95902076D01*
X178280376Y-95906986D01*
X178275838Y-95908500D01*
X178201054Y-95933450D01*
X178050652Y-96026522D01*
X177925695Y-96151697D01*
X177832885Y-96302262D01*
X177777203Y-96470139D01*
X177766500Y-96574600D01*
X177766500Y-97350400D01*
X177766837Y-97353646D01*
X177766837Y-97353650D01*
X177776120Y-97443115D01*
X177777474Y-97456166D01*
X177779655Y-97462702D01*
X177779655Y-97462704D01*
X177814284Y-97566500D01*
X177833450Y-97623946D01*
X177926522Y-97774348D01*
X178051697Y-97899305D01*
X178055916Y-97901906D01*
X178096417Y-97959030D01*
X178099649Y-98029953D01*
X178064024Y-98091365D01*
X178056470Y-98097922D01*
X178050652Y-98101522D01*
X177925695Y-98226697D01*
X177869877Y-98317251D01*
X177853317Y-98344116D01*
X177800545Y-98391609D01*
X177746057Y-98404000D01*
X177741965Y-98404000D01*
X177673844Y-98383998D01*
X177648329Y-98362311D01*
X177615668Y-98326037D01*
X177615666Y-98326036D01*
X177611253Y-98321134D01*
X177589671Y-98305454D01*
X177462094Y-98212763D01*
X177462093Y-98212762D01*
X177456752Y-98208882D01*
X177450724Y-98206198D01*
X177450722Y-98206197D01*
X177288319Y-98133891D01*
X177288318Y-98133891D01*
X177282288Y-98131206D01*
X177167016Y-98106704D01*
X177101944Y-98092872D01*
X177101939Y-98092872D01*
X177095487Y-98091500D01*
X176904513Y-98091500D01*
X176898061Y-98092872D01*
X176898056Y-98092872D01*
X176832984Y-98106704D01*
X176717712Y-98131206D01*
X176711682Y-98133891D01*
X176711681Y-98133891D01*
X176549278Y-98206197D01*
X176549276Y-98206198D01*
X176543248Y-98208882D01*
X176388747Y-98321134D01*
X176260960Y-98463056D01*
X176165473Y-98628444D01*
X176106458Y-98810072D01*
X176086496Y-99000000D01*
X176106458Y-99189928D01*
X176165473Y-99371556D01*
X176260960Y-99536944D01*
X176388747Y-99678866D01*
X176543248Y-99791118D01*
X176549276Y-99793802D01*
X176549278Y-99793803D01*
X176685654Y-99854521D01*
X176717712Y-99868794D01*
X176794501Y-99885116D01*
X176898056Y-99907128D01*
X176898061Y-99907128D01*
X176904513Y-99908500D01*
X177095487Y-99908500D01*
X177101939Y-99907128D01*
X177101944Y-99907128D01*
X177205499Y-99885116D01*
X177282288Y-99868794D01*
X177314346Y-99854521D01*
X177450722Y-99793803D01*
X177450724Y-99793802D01*
X177456752Y-99791118D01*
X177588959Y-99695064D01*
X177655825Y-99671206D01*
X177663019Y-99671000D01*
X177745954Y-99671000D01*
X177814075Y-99691002D01*
X177853098Y-99730697D01*
X177916249Y-99832747D01*
X177926522Y-99849348D01*
X177931704Y-99854521D01*
X177988463Y-99911181D01*
X178022542Y-99973463D01*
X178017539Y-100044283D01*
X177988618Y-100089372D01*
X177931261Y-100146829D01*
X177922249Y-100158240D01*
X177837184Y-100296243D01*
X177831037Y-100309424D01*
X177779862Y-100463710D01*
X177776995Y-100477086D01*
X177767328Y-100571438D01*
X177767000Y-100577855D01*
X177767000Y-100690385D01*
X177771475Y-100705624D01*
X177772865Y-100706829D01*
X177780548Y-100708500D01*
X180214884Y-100708500D01*
X180230123Y-100704025D01*
X180231328Y-100702635D01*
X180232999Y-100694952D01*
X180232999Y-100577905D01*
X180232662Y-100571386D01*
X180222743Y-100475794D01*
X180219851Y-100462400D01*
X180168412Y-100308216D01*
X180162239Y-100295038D01*
X180076937Y-100157193D01*
X180067900Y-100145791D01*
X180011537Y-100089525D01*
X179977459Y-100027242D01*
X179982462Y-99956422D01*
X180011383Y-99911335D01*
X180069134Y-99853483D01*
X180074305Y-99848303D01*
X180078146Y-99842072D01*
X180163275Y-99703968D01*
X180163276Y-99703966D01*
X180167115Y-99697738D01*
X180222797Y-99529861D01*
X180233500Y-99425400D01*
X180233500Y-98649600D01*
X180222526Y-98543834D01*
X180218005Y-98530281D01*
X180168868Y-98383002D01*
X180166550Y-98376054D01*
X180073478Y-98225652D01*
X179948303Y-98100695D01*
X179944084Y-98098094D01*
X179903583Y-98040970D01*
X179900351Y-97970047D01*
X179935976Y-97908635D01*
X179943530Y-97902078D01*
X179949348Y-97898478D01*
X180074305Y-97773303D01*
X180098893Y-97733414D01*
X180163275Y-97628968D01*
X180163276Y-97628966D01*
X180167115Y-97622738D01*
X180207825Y-97500000D01*
X180220632Y-97461389D01*
X180220632Y-97461387D01*
X180222797Y-97454861D01*
X180224001Y-97443115D01*
X180233172Y-97353598D01*
X180233500Y-97350400D01*
X180233500Y-96574600D01*
X180232712Y-96567001D01*
X180223238Y-96475692D01*
X180223237Y-96475688D01*
X180222526Y-96468834D01*
X180166550Y-96301054D01*
X180073478Y-96150652D01*
X179948303Y-96025695D01*
X179942072Y-96021854D01*
X179803968Y-95936725D01*
X179803966Y-95936724D01*
X179797738Y-95932885D01*
X179740051Y-95913751D01*
X179719833Y-95907045D01*
X179661473Y-95866614D01*
X179634236Y-95801050D01*
X179633500Y-95787452D01*
X179633500Y-95416274D01*
X179634027Y-95405091D01*
X179635702Y-95397598D01*
X179633562Y-95329521D01*
X179633500Y-95325562D01*
X179633500Y-95297651D01*
X179632995Y-95293651D01*
X179632062Y-95281808D01*
X179630922Y-95245536D01*
X179630673Y-95237617D01*
X179625022Y-95218165D01*
X179621014Y-95198813D01*
X179619467Y-95186570D01*
X179618474Y-95178710D01*
X179615556Y-95171339D01*
X179602200Y-95137604D01*
X179598355Y-95126377D01*
X179597721Y-95124194D01*
X179586018Y-95083914D01*
X179581984Y-95077092D01*
X179581981Y-95077086D01*
X179575706Y-95066475D01*
X179567010Y-95048725D01*
X179562472Y-95037263D01*
X179562469Y-95037258D01*
X179559552Y-95029890D01*
X179533573Y-94994132D01*
X179527057Y-94984214D01*
X179508575Y-94952964D01*
X179504542Y-94946144D01*
X179490218Y-94931820D01*
X179477376Y-94916785D01*
X179465472Y-94900400D01*
X179431406Y-94872218D01*
X179422627Y-94864229D01*
X174591625Y-90033227D01*
X174584085Y-90024941D01*
X174579973Y-90018462D01*
X174554007Y-89994078D01*
X174530322Y-89971837D01*
X174527480Y-89969082D01*
X174507743Y-89949345D01*
X174504546Y-89946865D01*
X174495524Y-89939160D01*
X174486874Y-89931037D01*
X174463294Y-89908894D01*
X174456348Y-89905075D01*
X174456345Y-89905073D01*
X174445539Y-89899132D01*
X174429020Y-89888281D01*
X174428556Y-89887921D01*
X174413014Y-89875866D01*
X174405745Y-89872721D01*
X174405741Y-89872718D01*
X174372436Y-89858306D01*
X174361786Y-89853089D01*
X174323033Y-89831785D01*
X174303410Y-89826747D01*
X174284707Y-89820343D01*
X174273393Y-89815447D01*
X174273392Y-89815447D01*
X174266118Y-89812299D01*
X174258295Y-89811060D01*
X174258285Y-89811057D01*
X174222449Y-89805381D01*
X174210829Y-89802975D01*
X174175684Y-89793952D01*
X174175683Y-89793952D01*
X174168003Y-89791980D01*
X174147749Y-89791980D01*
X174128038Y-89790429D01*
X174115859Y-89788500D01*
X174108030Y-89787260D01*
X174078759Y-89790027D01*
X174064012Y-89791421D01*
X174052154Y-89791980D01*
X167565788Y-89791980D01*
X167554605Y-89791453D01*
X167547112Y-89789778D01*
X167539186Y-89790027D01*
X167539185Y-89790027D01*
X167479022Y-89791918D01*
X167475064Y-89791980D01*
X167447164Y-89791980D01*
X167443174Y-89792484D01*
X167431340Y-89793416D01*
X167387131Y-89794806D01*
X167379515Y-89797019D01*
X167379513Y-89797019D01*
X167367672Y-89800459D01*
X167348313Y-89804468D01*
X167347003Y-89804634D01*
X167328223Y-89807006D01*
X167320857Y-89809922D01*
X167320851Y-89809924D01*
X167287118Y-89823280D01*
X167275888Y-89827125D01*
X167259848Y-89831785D01*
X167233427Y-89839461D01*
X167226604Y-89843496D01*
X167215986Y-89849775D01*
X167198233Y-89858472D01*
X167190588Y-89861499D01*
X167179403Y-89865928D01*
X167159280Y-89880548D01*
X167143632Y-89891917D01*
X167133715Y-89898431D01*
X167095658Y-89920938D01*
X167081337Y-89935259D01*
X167066304Y-89948099D01*
X167049913Y-89960008D01*
X167044860Y-89966116D01*
X167021728Y-89994078D01*
X167013738Y-90002858D01*
X166812001Y-90204595D01*
X166749689Y-90238621D01*
X166722906Y-90241500D01*
X166283498Y-90241500D01*
X166281050Y-90241693D01*
X166281042Y-90241693D01*
X166252579Y-90243933D01*
X166252574Y-90243934D01*
X166246169Y-90244438D01*
X166146231Y-90273472D01*
X166094012Y-90288643D01*
X166094010Y-90288644D01*
X166086399Y-90290855D01*
X166057589Y-90307893D01*
X165950020Y-90371509D01*
X165950017Y-90371511D01*
X165943193Y-90375547D01*
X165825547Y-90493193D01*
X165821511Y-90500017D01*
X165821509Y-90500020D01*
X165779304Y-90571386D01*
X165740855Y-90636399D01*
X165694438Y-90796169D01*
X165691500Y-90833498D01*
X165691500Y-91090175D01*
X165671498Y-91158296D01*
X165617842Y-91204789D01*
X165547568Y-91214893D01*
X165491441Y-91192113D01*
X165481062Y-91184572D01*
X165475034Y-91181888D01*
X165475032Y-91181887D01*
X165312629Y-91109581D01*
X165312628Y-91109581D01*
X165306598Y-91106896D01*
X165213198Y-91087043D01*
X165126254Y-91068562D01*
X165126249Y-91068562D01*
X165119797Y-91067190D01*
X164928823Y-91067190D01*
X164922371Y-91068562D01*
X164922366Y-91068562D01*
X164835422Y-91087043D01*
X164742022Y-91106896D01*
X164735992Y-91109581D01*
X164735991Y-91109581D01*
X164573588Y-91181887D01*
X164573586Y-91181888D01*
X164567558Y-91184572D01*
X164562217Y-91188452D01*
X164562216Y-91188453D01*
X164539732Y-91204789D01*
X164413057Y-91296824D01*
X164408636Y-91301734D01*
X164408635Y-91301735D01*
X164320288Y-91399855D01*
X164285270Y-91438746D01*
X164189783Y-91604134D01*
X164130768Y-91785762D01*
X164130078Y-91792323D01*
X164130078Y-91792325D01*
X164114399Y-91941500D01*
X164110806Y-91975690D01*
X161900218Y-91975690D01*
X161899946Y-91969724D01*
X161935572Y-91908313D01*
X161944068Y-91900938D01*
X161954207Y-91892902D01*
X162068739Y-91778171D01*
X162077751Y-91766760D01*
X162162816Y-91628757D01*
X162168963Y-91615576D01*
X162220138Y-91461290D01*
X162223005Y-91447914D01*
X162232672Y-91353562D01*
X162233000Y-91347146D01*
X162233000Y-91234615D01*
X162228525Y-91219376D01*
X162227135Y-91218171D01*
X162219452Y-91216500D01*
X159785116Y-91216500D01*
X159769877Y-91220975D01*
X159768672Y-91222365D01*
X159767001Y-91230048D01*
X159767001Y-91347095D01*
X159767338Y-91353614D01*
X159777257Y-91449206D01*
X159780149Y-91462600D01*
X159831588Y-91616784D01*
X159837761Y-91629962D01*
X159923063Y-91767807D01*
X159932099Y-91779208D01*
X160046828Y-91893738D01*
X160055762Y-91900794D01*
X160096823Y-91958712D01*
X160100053Y-92029635D01*
X160064426Y-92091046D01*
X160056593Y-92097846D01*
X160050652Y-92101522D01*
X159925695Y-92226697D01*
X159921855Y-92232927D01*
X159921854Y-92232928D01*
X159837276Y-92370139D01*
X159832885Y-92377262D01*
X159777203Y-92545139D01*
X159766500Y-92649600D01*
X159766500Y-93425400D01*
X157508000Y-93425400D01*
X157508000Y-90690385D01*
X159767000Y-90690385D01*
X159771475Y-90705624D01*
X159772865Y-90706829D01*
X159780548Y-90708500D01*
X160727885Y-90708500D01*
X160743124Y-90704025D01*
X160744329Y-90702635D01*
X160746000Y-90694952D01*
X160746000Y-90690385D01*
X161254000Y-90690385D01*
X161258475Y-90705624D01*
X161259865Y-90706829D01*
X161267548Y-90708500D01*
X162214884Y-90708500D01*
X162230123Y-90704025D01*
X162231328Y-90702635D01*
X162232999Y-90694952D01*
X162232999Y-90577905D01*
X162232662Y-90571386D01*
X162222743Y-90475794D01*
X162219851Y-90462400D01*
X162168412Y-90308216D01*
X162162239Y-90295038D01*
X162076937Y-90157193D01*
X162067901Y-90145792D01*
X161953171Y-90031261D01*
X161941760Y-90022249D01*
X161803757Y-89937184D01*
X161790576Y-89931037D01*
X161636290Y-89879862D01*
X161622914Y-89876995D01*
X161528562Y-89867328D01*
X161522145Y-89867000D01*
X161272115Y-89867000D01*
X161256876Y-89871475D01*
X161255671Y-89872865D01*
X161254000Y-89880548D01*
X161254000Y-90690385D01*
X160746000Y-90690385D01*
X160746000Y-89885116D01*
X160741525Y-89869877D01*
X160740135Y-89868672D01*
X160732452Y-89867001D01*
X160477905Y-89867001D01*
X160471386Y-89867338D01*
X160375794Y-89877257D01*
X160362400Y-89880149D01*
X160208216Y-89931588D01*
X160195038Y-89937761D01*
X160057193Y-90023063D01*
X160045792Y-90032099D01*
X159931261Y-90146829D01*
X159922249Y-90158240D01*
X159837184Y-90296243D01*
X159831037Y-90309424D01*
X159779862Y-90463710D01*
X159776995Y-90477086D01*
X159767328Y-90571438D01*
X159767000Y-90577855D01*
X159767000Y-90690385D01*
X157508000Y-90690385D01*
X157508000Y-88634000D01*
X157528002Y-88565879D01*
X157581658Y-88519386D01*
X157634000Y-88508000D01*
X181366000Y-88508000D01*
X181434121Y-88528002D01*
G37*
%TD.AperFunction*%
%TD*%
M02*
