%TF.GenerationSoftware,KiCad,Pcbnew,(6.0.0)*%
%TF.CreationDate,2023-10-14T17:08:09-04:00*%
%TF.ProjectId,Shield_Pins,53686965-6c64-45f5-9069-6e732e6b6963,rev?*%
%TF.SameCoordinates,Original*%
%TF.FileFunction,Soldermask,Top*%
%TF.FilePolarity,Negative*%
%FSLAX46Y46*%
G04 Gerber Fmt 4.6, Leading zero omitted, Abs format (unit mm)*
G04 Created by KiCad (PCBNEW (6.0.0)) date 2023-10-14 17:08:09*
%MOMM*%
%LPD*%
G01*
G04 APERTURE LIST*
G04 Aperture macros list*
%AMRoundRect*
0 Rectangle with rounded corners*
0 $1 Rounding radius*
0 $2 $3 $4 $5 $6 $7 $8 $9 X,Y pos of 4 corners*
0 Add a 4 corners polygon primitive as box body*
4,1,4,$2,$3,$4,$5,$6,$7,$8,$9,$2,$3,0*
0 Add four circle primitives for the rounded corners*
1,1,$1+$1,$2,$3*
1,1,$1+$1,$4,$5*
1,1,$1+$1,$6,$7*
1,1,$1+$1,$8,$9*
0 Add four rect primitives between the rounded corners*
20,1,$1+$1,$2,$3,$4,$5,0*
20,1,$1+$1,$4,$5,$6,$7,0*
20,1,$1+$1,$6,$7,$8,$9,0*
20,1,$1+$1,$8,$9,$2,$3,0*%
G04 Aperture macros list end*
%ADD10R,1.350000X1.350000*%
%ADD11O,1.350000X1.350000*%
%ADD12RoundRect,0.150000X-0.512500X-0.150000X0.512500X-0.150000X0.512500X0.150000X-0.512500X0.150000X0*%
%ADD13RoundRect,0.250000X-0.475000X0.337500X-0.475000X-0.337500X0.475000X-0.337500X0.475000X0.337500X0*%
%ADD14RoundRect,0.250000X0.337500X0.475000X-0.337500X0.475000X-0.337500X-0.475000X0.337500X-0.475000X0*%
%ADD15RoundRect,0.250000X-0.337500X-0.475000X0.337500X-0.475000X0.337500X0.475000X-0.337500X0.475000X0*%
%ADD16RoundRect,0.250000X0.475000X-0.337500X0.475000X0.337500X-0.475000X0.337500X-0.475000X-0.337500X0*%
%ADD17RoundRect,0.250000X0.325000X0.450000X-0.325000X0.450000X-0.325000X-0.450000X0.325000X-0.450000X0*%
%ADD18RoundRect,0.250000X-0.350000X-0.450000X0.350000X-0.450000X0.350000X0.450000X-0.350000X0.450000X0*%
%ADD19R,0.350000X0.375000*%
%ADD20R,0.375000X0.350000*%
G04 APERTURE END LIST*
D10*
%TO.C,J4*%
X150900000Y-106425000D03*
D11*
X152900000Y-106425000D03*
X154900000Y-106425000D03*
X156900000Y-106425000D03*
%TD*%
D12*
%TO.C,U1*%
X115262500Y-81050000D03*
X115262500Y-82000000D03*
X115262500Y-82950000D03*
X117537500Y-82950000D03*
X117537500Y-81050000D03*
%TD*%
D13*
%TO.C,C2*%
X123800000Y-81062500D03*
X123800000Y-83137500D03*
%TD*%
D10*
%TO.C,J1*%
X141825000Y-106425000D03*
D11*
X143825000Y-106425000D03*
X145825000Y-106425000D03*
X147825000Y-106425000D03*
%TD*%
D10*
%TO.C,J3*%
X156300000Y-72500000D03*
D11*
X154300000Y-72500000D03*
X152300000Y-72500000D03*
X150300000Y-72500000D03*
X148300000Y-72500000D03*
X146300000Y-72500000D03*
%TD*%
D10*
%TO.C,J6*%
X125325000Y-72275000D03*
D11*
X123325000Y-72275000D03*
X121325000Y-72275000D03*
X119325000Y-72275000D03*
X117325000Y-72275000D03*
X115325000Y-72275000D03*
%TD*%
D10*
%TO.C,J2*%
X128750000Y-106425000D03*
D11*
X130750000Y-106425000D03*
X132750000Y-106425000D03*
X134750000Y-106425000D03*
X136750000Y-106425000D03*
X138750000Y-106425000D03*
%TD*%
D14*
%TO.C,C3*%
X135437500Y-90500000D03*
X133362500Y-90500000D03*
%TD*%
D15*
%TO.C,C6*%
X130522500Y-84750000D03*
X132597500Y-84750000D03*
%TD*%
D10*
%TO.C,J7*%
X160175000Y-100575000D03*
D11*
X160175000Y-98575000D03*
X160175000Y-96575000D03*
X160175000Y-94575000D03*
X160175000Y-92575000D03*
X160175000Y-90575000D03*
X160175000Y-88575000D03*
X160175000Y-86575000D03*
X160175000Y-84575000D03*
X160175000Y-82575000D03*
X160175000Y-80575000D03*
X160175000Y-78575000D03*
X160175000Y-76575000D03*
X160175000Y-74575000D03*
X160175000Y-72575000D03*
%TD*%
D16*
%TO.C,C1*%
X109400000Y-83137500D03*
X109400000Y-81062500D03*
%TD*%
D15*
%TO.C,C5*%
X120562500Y-89200000D03*
X122637500Y-89200000D03*
%TD*%
D17*
%TO.C,D1*%
X137350000Y-81000000D03*
X135300000Y-81000000D03*
%TD*%
D18*
%TO.C,R1*%
X130000000Y-81000000D03*
X132000000Y-81000000D03*
%TD*%
D14*
%TO.C,C4*%
X135537500Y-95300000D03*
X133462500Y-95300000D03*
%TD*%
D10*
%TO.C,J8*%
X163625000Y-72575000D03*
D11*
X163625000Y-74575000D03*
X163625000Y-76575000D03*
X163625000Y-78575000D03*
X163625000Y-80575000D03*
X163625000Y-82575000D03*
X163625000Y-84575000D03*
X163625000Y-86575000D03*
X163625000Y-88575000D03*
X163625000Y-90575000D03*
X163625000Y-92575000D03*
X163625000Y-94575000D03*
X163625000Y-96575000D03*
X163625000Y-98575000D03*
X163625000Y-100575000D03*
%TD*%
D19*
%TO.C,U2*%
X133950000Y-101462500D03*
X134450000Y-101462500D03*
X134950000Y-101462500D03*
X135450000Y-101462500D03*
D20*
X135462500Y-100950000D03*
X135462500Y-100450000D03*
D19*
X135450000Y-99937500D03*
X134950000Y-99937500D03*
X134450000Y-99937500D03*
X133950000Y-99937500D03*
D20*
X133937500Y-100450000D03*
X133937500Y-100950000D03*
%TD*%
D10*
%TO.C,J5*%
X160150000Y-106425000D03*
%TD*%
%TO.C,J9*%
X93200000Y-72300000D03*
D11*
X93200000Y-74300000D03*
%TD*%
M02*
