%TF.GenerationSoftware,KiCad,Pcbnew,(6.0.0)*%
%TF.CreationDate,2023-10-14T17:08:09-04:00*%
%TF.ProjectId,Shield_Pins,53686965-6c64-45f5-9069-6e732e6b6963,rev?*%
%TF.SameCoordinates,Original*%
%TF.FileFunction,Legend,Top*%
%TF.FilePolarity,Positive*%
%FSLAX46Y46*%
G04 Gerber Fmt 4.6, Leading zero omitted, Abs format (unit mm)*
G04 Created by KiCad (PCBNEW (6.0.0)) date 2023-10-14 17:08:09*
%MOMM*%
%LPD*%
G01*
G04 APERTURE LIST*
%ADD10C,0.150000*%
%ADD11C,0.120000*%
G04 APERTURE END LIST*
D10*
%TO.C,J4*%
X149966666Y-103502380D02*
X149966666Y-104216666D01*
X149919047Y-104359523D01*
X149823809Y-104454761D01*
X149680952Y-104502380D01*
X149585714Y-104502380D01*
X150871428Y-103835714D02*
X150871428Y-104502380D01*
X150633333Y-103454761D02*
X150395238Y-104169047D01*
X151014285Y-104169047D01*
%TO.C,U1*%
X115638095Y-79052380D02*
X115638095Y-79861904D01*
X115685714Y-79957142D01*
X115733333Y-80004761D01*
X115828571Y-80052380D01*
X116019047Y-80052380D01*
X116114285Y-80004761D01*
X116161904Y-79957142D01*
X116209523Y-79861904D01*
X116209523Y-79052380D01*
X117209523Y-80052380D02*
X116638095Y-80052380D01*
X116923809Y-80052380D02*
X116923809Y-79052380D01*
X116828571Y-79195238D01*
X116733333Y-79290476D01*
X116638095Y-79338095D01*
%TO.C,C2*%
X125837142Y-82266666D02*
X125884761Y-82314285D01*
X125932380Y-82457142D01*
X125932380Y-82552380D01*
X125884761Y-82695238D01*
X125789523Y-82790476D01*
X125694285Y-82838095D01*
X125503809Y-82885714D01*
X125360952Y-82885714D01*
X125170476Y-82838095D01*
X125075238Y-82790476D01*
X124980000Y-82695238D01*
X124932380Y-82552380D01*
X124932380Y-82457142D01*
X124980000Y-82314285D01*
X125027619Y-82266666D01*
X125027619Y-81885714D02*
X124980000Y-81838095D01*
X124932380Y-81742857D01*
X124932380Y-81504761D01*
X124980000Y-81409523D01*
X125027619Y-81361904D01*
X125122857Y-81314285D01*
X125218095Y-81314285D01*
X125360952Y-81361904D01*
X125932380Y-81933333D01*
X125932380Y-81314285D01*
%TO.C,J1*%
X140866666Y-103452380D02*
X140866666Y-104166666D01*
X140819047Y-104309523D01*
X140723809Y-104404761D01*
X140580952Y-104452380D01*
X140485714Y-104452380D01*
X141866666Y-104452380D02*
X141295238Y-104452380D01*
X141580952Y-104452380D02*
X141580952Y-103452380D01*
X141485714Y-103595238D01*
X141390476Y-103690476D01*
X141295238Y-103738095D01*
%TO.C,J3*%
X156766666Y-74452380D02*
X156766666Y-75166666D01*
X156719047Y-75309523D01*
X156623809Y-75404761D01*
X156480952Y-75452380D01*
X156385714Y-75452380D01*
X157147619Y-74452380D02*
X157766666Y-74452380D01*
X157433333Y-74833333D01*
X157576190Y-74833333D01*
X157671428Y-74880952D01*
X157719047Y-74928571D01*
X157766666Y-75023809D01*
X157766666Y-75261904D01*
X157719047Y-75357142D01*
X157671428Y-75404761D01*
X157576190Y-75452380D01*
X157290476Y-75452380D01*
X157195238Y-75404761D01*
X157147619Y-75357142D01*
%TO.C,J6*%
X125866666Y-74102380D02*
X125866666Y-74816666D01*
X125819047Y-74959523D01*
X125723809Y-75054761D01*
X125580952Y-75102380D01*
X125485714Y-75102380D01*
X126771428Y-74102380D02*
X126580952Y-74102380D01*
X126485714Y-74150000D01*
X126438095Y-74197619D01*
X126342857Y-74340476D01*
X126295238Y-74530952D01*
X126295238Y-74911904D01*
X126342857Y-75007142D01*
X126390476Y-75054761D01*
X126485714Y-75102380D01*
X126676190Y-75102380D01*
X126771428Y-75054761D01*
X126819047Y-75007142D01*
X126866666Y-74911904D01*
X126866666Y-74673809D01*
X126819047Y-74578571D01*
X126771428Y-74530952D01*
X126676190Y-74483333D01*
X126485714Y-74483333D01*
X126390476Y-74530952D01*
X126342857Y-74578571D01*
X126295238Y-74673809D01*
%TO.C,J2*%
X127766666Y-103502380D02*
X127766666Y-104216666D01*
X127719047Y-104359523D01*
X127623809Y-104454761D01*
X127480952Y-104502380D01*
X127385714Y-104502380D01*
X128195238Y-103597619D02*
X128242857Y-103550000D01*
X128338095Y-103502380D01*
X128576190Y-103502380D01*
X128671428Y-103550000D01*
X128719047Y-103597619D01*
X128766666Y-103692857D01*
X128766666Y-103788095D01*
X128719047Y-103930952D01*
X128147619Y-104502380D01*
X128766666Y-104502380D01*
%TO.C,C3*%
X134233333Y-92537142D02*
X134185714Y-92584761D01*
X134042857Y-92632380D01*
X133947619Y-92632380D01*
X133804761Y-92584761D01*
X133709523Y-92489523D01*
X133661904Y-92394285D01*
X133614285Y-92203809D01*
X133614285Y-92060952D01*
X133661904Y-91870476D01*
X133709523Y-91775238D01*
X133804761Y-91680000D01*
X133947619Y-91632380D01*
X134042857Y-91632380D01*
X134185714Y-91680000D01*
X134233333Y-91727619D01*
X134566666Y-91632380D02*
X135185714Y-91632380D01*
X134852380Y-92013333D01*
X134995238Y-92013333D01*
X135090476Y-92060952D01*
X135138095Y-92108571D01*
X135185714Y-92203809D01*
X135185714Y-92441904D01*
X135138095Y-92537142D01*
X135090476Y-92584761D01*
X134995238Y-92632380D01*
X134709523Y-92632380D01*
X134614285Y-92584761D01*
X134566666Y-92537142D01*
%TO.C,C6*%
X131393333Y-83427142D02*
X131345714Y-83474761D01*
X131202857Y-83522380D01*
X131107619Y-83522380D01*
X130964761Y-83474761D01*
X130869523Y-83379523D01*
X130821904Y-83284285D01*
X130774285Y-83093809D01*
X130774285Y-82950952D01*
X130821904Y-82760476D01*
X130869523Y-82665238D01*
X130964761Y-82570000D01*
X131107619Y-82522380D01*
X131202857Y-82522380D01*
X131345714Y-82570000D01*
X131393333Y-82617619D01*
X132250476Y-82522380D02*
X132060000Y-82522380D01*
X131964761Y-82570000D01*
X131917142Y-82617619D01*
X131821904Y-82760476D01*
X131774285Y-82950952D01*
X131774285Y-83331904D01*
X131821904Y-83427142D01*
X131869523Y-83474761D01*
X131964761Y-83522380D01*
X132155238Y-83522380D01*
X132250476Y-83474761D01*
X132298095Y-83427142D01*
X132345714Y-83331904D01*
X132345714Y-83093809D01*
X132298095Y-82998571D01*
X132250476Y-82950952D01*
X132155238Y-82903333D01*
X131964761Y-82903333D01*
X131869523Y-82950952D01*
X131821904Y-82998571D01*
X131774285Y-83093809D01*
%TO.C,J7*%
X160516666Y-102452380D02*
X160516666Y-103166666D01*
X160469047Y-103309523D01*
X160373809Y-103404761D01*
X160230952Y-103452380D01*
X160135714Y-103452380D01*
X160897619Y-102452380D02*
X161564285Y-102452380D01*
X161135714Y-103452380D01*
%TO.C,C1*%
X108077142Y-82266666D02*
X108124761Y-82314285D01*
X108172380Y-82457142D01*
X108172380Y-82552380D01*
X108124761Y-82695238D01*
X108029523Y-82790476D01*
X107934285Y-82838095D01*
X107743809Y-82885714D01*
X107600952Y-82885714D01*
X107410476Y-82838095D01*
X107315238Y-82790476D01*
X107220000Y-82695238D01*
X107172380Y-82552380D01*
X107172380Y-82457142D01*
X107220000Y-82314285D01*
X107267619Y-82266666D01*
X108172380Y-81314285D02*
X108172380Y-81885714D01*
X108172380Y-81600000D02*
X107172380Y-81600000D01*
X107315238Y-81695238D01*
X107410476Y-81790476D01*
X107458095Y-81885714D01*
%TO.C,C5*%
X121433333Y-87877142D02*
X121385714Y-87924761D01*
X121242857Y-87972380D01*
X121147619Y-87972380D01*
X121004761Y-87924761D01*
X120909523Y-87829523D01*
X120861904Y-87734285D01*
X120814285Y-87543809D01*
X120814285Y-87400952D01*
X120861904Y-87210476D01*
X120909523Y-87115238D01*
X121004761Y-87020000D01*
X121147619Y-86972380D01*
X121242857Y-86972380D01*
X121385714Y-87020000D01*
X121433333Y-87067619D01*
X122338095Y-86972380D02*
X121861904Y-86972380D01*
X121814285Y-87448571D01*
X121861904Y-87400952D01*
X121957142Y-87353333D01*
X122195238Y-87353333D01*
X122290476Y-87400952D01*
X122338095Y-87448571D01*
X122385714Y-87543809D01*
X122385714Y-87781904D01*
X122338095Y-87877142D01*
X122290476Y-87924761D01*
X122195238Y-87972380D01*
X121957142Y-87972380D01*
X121861904Y-87924761D01*
X121814285Y-87877142D01*
%TO.C,D1*%
X135586904Y-83102380D02*
X135586904Y-82102380D01*
X135825000Y-82102380D01*
X135967857Y-82150000D01*
X136063095Y-82245238D01*
X136110714Y-82340476D01*
X136158333Y-82530952D01*
X136158333Y-82673809D01*
X136110714Y-82864285D01*
X136063095Y-82959523D01*
X135967857Y-83054761D01*
X135825000Y-83102380D01*
X135586904Y-83102380D01*
X137110714Y-83102380D02*
X136539285Y-83102380D01*
X136825000Y-83102380D02*
X136825000Y-82102380D01*
X136729761Y-82245238D01*
X136634523Y-82340476D01*
X136539285Y-82388095D01*
%TO.C,R1*%
X130833333Y-79802380D02*
X130500000Y-79326190D01*
X130261904Y-79802380D02*
X130261904Y-78802380D01*
X130642857Y-78802380D01*
X130738095Y-78850000D01*
X130785714Y-78897619D01*
X130833333Y-78992857D01*
X130833333Y-79135714D01*
X130785714Y-79230952D01*
X130738095Y-79278571D01*
X130642857Y-79326190D01*
X130261904Y-79326190D01*
X131785714Y-79802380D02*
X131214285Y-79802380D01*
X131500000Y-79802380D02*
X131500000Y-78802380D01*
X131404761Y-78945238D01*
X131309523Y-79040476D01*
X131214285Y-79088095D01*
%TO.C,C4*%
X134333333Y-97337142D02*
X134285714Y-97384761D01*
X134142857Y-97432380D01*
X134047619Y-97432380D01*
X133904761Y-97384761D01*
X133809523Y-97289523D01*
X133761904Y-97194285D01*
X133714285Y-97003809D01*
X133714285Y-96860952D01*
X133761904Y-96670476D01*
X133809523Y-96575238D01*
X133904761Y-96480000D01*
X134047619Y-96432380D01*
X134142857Y-96432380D01*
X134285714Y-96480000D01*
X134333333Y-96527619D01*
X135190476Y-96765714D02*
X135190476Y-97432380D01*
X134952380Y-96384761D02*
X134714285Y-97099047D01*
X135333333Y-97099047D01*
%TO.C,J8*%
X164066666Y-102352380D02*
X164066666Y-103066666D01*
X164019047Y-103209523D01*
X163923809Y-103304761D01*
X163780952Y-103352380D01*
X163685714Y-103352380D01*
X164685714Y-102780952D02*
X164590476Y-102733333D01*
X164542857Y-102685714D01*
X164495238Y-102590476D01*
X164495238Y-102542857D01*
X164542857Y-102447619D01*
X164590476Y-102400000D01*
X164685714Y-102352380D01*
X164876190Y-102352380D01*
X164971428Y-102400000D01*
X165019047Y-102447619D01*
X165066666Y-102542857D01*
X165066666Y-102590476D01*
X165019047Y-102685714D01*
X164971428Y-102733333D01*
X164876190Y-102780952D01*
X164685714Y-102780952D01*
X164590476Y-102828571D01*
X164542857Y-102876190D01*
X164495238Y-102971428D01*
X164495238Y-103161904D01*
X164542857Y-103257142D01*
X164590476Y-103304761D01*
X164685714Y-103352380D01*
X164876190Y-103352380D01*
X164971428Y-103304761D01*
X165019047Y-103257142D01*
X165066666Y-103161904D01*
X165066666Y-102971428D01*
X165019047Y-102876190D01*
X164971428Y-102828571D01*
X164876190Y-102780952D01*
%TO.C,U2*%
X132302380Y-101461904D02*
X133111904Y-101461904D01*
X133207142Y-101414285D01*
X133254761Y-101366666D01*
X133302380Y-101271428D01*
X133302380Y-101080952D01*
X133254761Y-100985714D01*
X133207142Y-100938095D01*
X133111904Y-100890476D01*
X132302380Y-100890476D01*
X132397619Y-100461904D02*
X132350000Y-100414285D01*
X132302380Y-100319047D01*
X132302380Y-100080952D01*
X132350000Y-99985714D01*
X132397619Y-99938095D01*
X132492857Y-99890476D01*
X132588095Y-99890476D01*
X132730952Y-99938095D01*
X133302380Y-100509523D01*
X133302380Y-99890476D01*
%TO.C,J5*%
X162416666Y-106852380D02*
X162416666Y-107566666D01*
X162369047Y-107709523D01*
X162273809Y-107804761D01*
X162130952Y-107852380D01*
X162035714Y-107852380D01*
X163369047Y-106852380D02*
X162892857Y-106852380D01*
X162845238Y-107328571D01*
X162892857Y-107280952D01*
X162988095Y-107233333D01*
X163226190Y-107233333D01*
X163321428Y-107280952D01*
X163369047Y-107328571D01*
X163416666Y-107423809D01*
X163416666Y-107661904D01*
X163369047Y-107757142D01*
X163321428Y-107804761D01*
X163226190Y-107852380D01*
X162988095Y-107852380D01*
X162892857Y-107804761D01*
X162845238Y-107757142D01*
%TO.C,J9*%
X95366666Y-70852380D02*
X95366666Y-71566666D01*
X95319047Y-71709523D01*
X95223809Y-71804761D01*
X95080952Y-71852380D01*
X94985714Y-71852380D01*
X95890476Y-71852380D02*
X96080952Y-71852380D01*
X96176190Y-71804761D01*
X96223809Y-71757142D01*
X96319047Y-71614285D01*
X96366666Y-71423809D01*
X96366666Y-71042857D01*
X96319047Y-70947619D01*
X96271428Y-70900000D01*
X96176190Y-70852380D01*
X95985714Y-70852380D01*
X95890476Y-70900000D01*
X95842857Y-70947619D01*
X95795238Y-71042857D01*
X95795238Y-71280952D01*
X95842857Y-71376190D01*
X95890476Y-71423809D01*
X95985714Y-71471428D01*
X96176190Y-71471428D01*
X96271428Y-71423809D01*
X96319047Y-71376190D01*
X96366666Y-71280952D01*
D11*
%TO.C,J4*%
X150900000Y-107485000D02*
X149840000Y-107485000D01*
X157960000Y-107485000D02*
X157960000Y-105365000D01*
X151900000Y-105365000D02*
X157960000Y-105365000D01*
X151900000Y-107485000D02*
X151900000Y-105365000D01*
X151900000Y-107485000D02*
X157960000Y-107485000D01*
X149840000Y-107485000D02*
X149840000Y-106425000D01*
%TO.C,U1*%
X116400000Y-83560000D02*
X117200000Y-83560000D01*
X116400000Y-80440000D02*
X117200000Y-80440000D01*
X116400000Y-80440000D02*
X114600000Y-80440000D01*
X116400000Y-83560000D02*
X115600000Y-83560000D01*
%TO.C,C2*%
X124535000Y-81838748D02*
X124535000Y-82361252D01*
X123065000Y-81838748D02*
X123065000Y-82361252D01*
%TO.C,J1*%
X142825000Y-107485000D02*
X148885000Y-107485000D01*
X142825000Y-107485000D02*
X142825000Y-105365000D01*
X141825000Y-107485000D02*
X140765000Y-107485000D01*
X142825000Y-105365000D02*
X148885000Y-105365000D01*
X148885000Y-107485000D02*
X148885000Y-105365000D01*
X140765000Y-107485000D02*
X140765000Y-106425000D01*
%TO.C,J3*%
X155300000Y-71440000D02*
X155300000Y-73560000D01*
X155300000Y-73560000D02*
X145240000Y-73560000D01*
X156300000Y-71440000D02*
X157360000Y-71440000D01*
X157360000Y-71440000D02*
X157360000Y-72500000D01*
X145240000Y-71440000D02*
X145240000Y-73560000D01*
X155300000Y-71440000D02*
X145240000Y-71440000D01*
%TO.C,J6*%
X124325000Y-73335000D02*
X114265000Y-73335000D01*
X126385000Y-71215000D02*
X126385000Y-72275000D01*
X124325000Y-71215000D02*
X124325000Y-73335000D01*
X125325000Y-71215000D02*
X126385000Y-71215000D01*
X114265000Y-71215000D02*
X114265000Y-73335000D01*
X124325000Y-71215000D02*
X114265000Y-71215000D01*
%TO.C,J2*%
X128750000Y-107485000D02*
X127690000Y-107485000D01*
X129750000Y-107485000D02*
X129750000Y-105365000D01*
X129750000Y-105365000D02*
X139810000Y-105365000D01*
X129750000Y-107485000D02*
X139810000Y-107485000D01*
X127690000Y-107485000D02*
X127690000Y-106425000D01*
X139810000Y-107485000D02*
X139810000Y-105365000D01*
%TO.C,C3*%
X134661252Y-91235000D02*
X134138748Y-91235000D01*
X134661252Y-89765000D02*
X134138748Y-89765000D01*
%TO.C,C6*%
X131298748Y-84015000D02*
X131821252Y-84015000D01*
X131298748Y-85485000D02*
X131821252Y-85485000D01*
%TO.C,J7*%
X161235000Y-101635000D02*
X160175000Y-101635000D01*
X161235000Y-71515000D02*
X159115000Y-71515000D01*
X161235000Y-99575000D02*
X159115000Y-99575000D01*
X161235000Y-100575000D02*
X161235000Y-101635000D01*
X159115000Y-99575000D02*
X159115000Y-71515000D01*
X161235000Y-99575000D02*
X161235000Y-71515000D01*
%TO.C,C1*%
X108665000Y-82361252D02*
X108665000Y-81838748D01*
X110135000Y-82361252D02*
X110135000Y-81838748D01*
%TO.C,C5*%
X121338748Y-89935000D02*
X121861252Y-89935000D01*
X121338748Y-88465000D02*
X121861252Y-88465000D01*
%TO.C,D1*%
X138185000Y-80040000D02*
X135325000Y-80040000D01*
X138185000Y-81960000D02*
X138185000Y-80040000D01*
X135325000Y-81960000D02*
X138185000Y-81960000D01*
%TO.C,R1*%
X130772936Y-81735000D02*
X131227064Y-81735000D01*
X130772936Y-80265000D02*
X131227064Y-80265000D01*
%TO.C,C4*%
X134761252Y-96035000D02*
X134238748Y-96035000D01*
X134761252Y-94565000D02*
X134238748Y-94565000D01*
%TO.C,J8*%
X162565000Y-73575000D02*
X164685000Y-73575000D01*
X164685000Y-73575000D02*
X164685000Y-101635000D01*
X162565000Y-71515000D02*
X163625000Y-71515000D01*
X162565000Y-101635000D02*
X164685000Y-101635000D01*
X162565000Y-73575000D02*
X162565000Y-101635000D01*
X162565000Y-72575000D02*
X162565000Y-71515000D01*
%TO.C,U2*%
X135800000Y-101800000D02*
X135300000Y-101800000D01*
X135800000Y-101300000D02*
X135800000Y-101800000D01*
X133600000Y-100100000D02*
X133600000Y-99600000D01*
X135800000Y-99600000D02*
X135800000Y-100100000D01*
X135300000Y-99600000D02*
X135800000Y-99600000D01*
X135800000Y-100100000D02*
X135800000Y-100100000D01*
X135300000Y-101800000D02*
X135300000Y-101800000D01*
X133600000Y-99600000D02*
X134100000Y-99600000D01*
X133600000Y-101300000D02*
X133600000Y-101800000D01*
X133600000Y-101800000D02*
X133600000Y-101800000D01*
X134100000Y-99600000D02*
X134100000Y-99600000D01*
%TO.C,J5*%
X159090000Y-107425000D02*
X159090000Y-107485000D01*
X161210000Y-107425000D02*
X161210000Y-107485000D01*
X159090000Y-107485000D02*
X161210000Y-107485000D01*
X159090000Y-107425000D02*
X161210000Y-107425000D01*
X159090000Y-106425000D02*
X159090000Y-105365000D01*
X159090000Y-105365000D02*
X160150000Y-105365000D01*
%TO.C,J9*%
X92140000Y-73300000D02*
X92140000Y-75360000D01*
X92140000Y-73300000D02*
X94260000Y-73300000D01*
X92140000Y-71240000D02*
X93200000Y-71240000D01*
X92140000Y-72300000D02*
X92140000Y-71240000D01*
X94260000Y-73300000D02*
X94260000Y-75360000D01*
X92140000Y-75360000D02*
X94260000Y-75360000D01*
%TD*%
M02*
