M48
; DRILL file {KiCad (6.0.0)} date Sat Oct 14 17:08:42 2023
; FORMAT={-:-/ absolute / inch / decimal}
; #@! TF.CreationDate,2023-10-14T17:08:42-04:00
; #@! TF.GenerationSoftware,Kicad,Pcbnew,(6.0.0)
; #@! TF.FileFunction,MixedPlating,1,2
FMAT,2
INCH
; #@! TA.AperFunction,Plated,PTH,ViaDrill
T1C0.0157
; #@! TA.AperFunction,Plated,PTH,ComponentDrill
T2C0.0315
%
G90
G05
T1
X5.3346Y-3.8878
X6.2106Y-3.8386
T2
X3.6693Y-2.8465
X3.6693Y-2.9252
X4.5404Y-2.8455
X4.6191Y-2.8455
X4.6978Y-2.8455
X4.7766Y-2.8455
X4.8553Y-2.8455
X4.9341Y-2.8455
X5.0689Y-4.19
X5.1476Y-4.19
X5.2264Y-4.19
X5.3051Y-4.19
X5.3839Y-4.19
X5.4626Y-4.19
X5.5837Y-4.19
X5.6624Y-4.19
X5.7411Y-4.19
X5.7598Y-2.8543
X5.8199Y-4.19
X5.8386Y-2.8543
X5.9173Y-2.8543
X5.9409Y-4.19
X5.9961Y-2.8543
X6.0197Y-4.19
X6.0748Y-2.8543
X6.0984Y-4.19
X6.1535Y-2.8543
X6.1772Y-4.19
X6.3051Y-4.19
X6.3061Y-2.8573
X6.3061Y-2.936
X6.3061Y-3.0148
X6.3061Y-3.0935
X6.3061Y-3.1722
X6.3061Y-3.251
X6.3061Y-3.3297
X6.3061Y-3.4085
X6.3061Y-3.4872
X6.3061Y-3.5659
X6.3061Y-3.6447
X6.3061Y-3.7234
X6.3061Y-3.8022
X6.3061Y-3.8809
X6.3061Y-3.9596
X6.4419Y-2.8573
X6.4419Y-2.936
X6.4419Y-3.0148
X6.4419Y-3.0935
X6.4419Y-3.1722
X6.4419Y-3.251
X6.4419Y-3.3297
X6.4419Y-3.4085
X6.4419Y-3.4872
X6.4419Y-3.5659
X6.4419Y-3.6447
X6.4419Y-3.7234
X6.4419Y-3.8022
X6.4419Y-3.8809
X6.4419Y-3.9596
T0
M30
